<svg width="80" height="80" xmlns="http://www.w3.org/2000/svg"><path d="M43.699 18.838h.122l.264.045C58.977 23.026 64.727 40.65 56.934 55.54c.346.846.537 1.747.563 2.66l.003.219v7.206H65a4.373 4.373 0 0 1 4.327 3.722l.025.205.023.448v6.25a1.25 1.25 0 0 1-1.122 1.244l-.128.006h-56.25a1.25 1.25 0 0 1-1.244-1.122l-.006-.128v-6.31a4.34 4.34 0 0 1 4.35-4.321l.087.005H40v-6.249H23.125a1.25 1.25 0 0 1-.252-2.475l.252-.025h17.023l.041-.198c.726-3.292 3.533-6.177 8.361-6.177l.311.004c.51.012 1 .056 1.468.128 4.541-9.03 1.432-19.387-7.07-23.013a1.25 1.25 0 0 1-.735-.905l-.024-.245v-6.382c0-.691.552-1.224 1.199-1.25zm-28.747 49.28l-.28.024a1.841 1.841 0 0 0-1.54 1.643l-.007.159v5.054h53.75V70c0-.88-.601-1.614-1.415-1.819l-.155-.032-.305-.024H15l-.048-.007zM48.55 53l-.281.004c-3.796.12-5.676 2.646-5.766 5.222l-.003.193-.002 7.205h12.5L55 58.42c0-2.543-1.887-5.024-5.543-5.376l-.285-.023-.622-.02zm-3.552-31.193v3.857l.553.278c8.765 4.615 11.849 15.695 7.218 25.392a8.15 8.15 0 0 1 2.576 1.778c5.8-12.52 1.458-26.558-9.821-31.105l-.526-.2zM38.125 2.5a1.25 1.25 0 0 1 .252 2.475L38.125 5h-5v4.375h5.625l.128.006a1.25 1.25 0 0 1 1.116 1.116l.006.128V40a1.25 1.25 0 0 1-1.122 1.244l-.128.006h-2.5v5.625a1.25 1.25 0 0 1-1.122 1.244l-.128.006h-5.625a1.25 1.25 0 0 1-1.244-1.122l-.006-.128V41.25H25a1.25 1.25 0 0 1-1.244-1.122L23.75 40V10.625c0-.647.492-1.18 1.122-1.244L25 9.375h5.625V5H26.25a1.25 1.25 0 0 1-.252-2.475l.252-.025h11.875zm-4.377 38.75h-3.123v4.374h3.123V41.25zm-1.891-29.376h-5.609v26.873h11.25V11.875h-5.605l-.018.001-.018-.001z" fill="#2F78C4" fill-rule="evenodd"/></svg>