<svg width="80" height="80" xmlns="http://www.w3.org/2000/svg"><path d="M39.528 41.8l.458.038a3.7 3.7 0 0 1 3.206 3.525l.002.194-.006 4.605.138-.047c.167-.052.34-.094.517-.124l.27-.036.415-.02.422.03c.98.134 1.833.642 2.418 1.371l.13.172.11.167.32-.159c.29-.128.601-.222.928-.277l.247-.033.425-.022.422.031a3.756 3.756 0 0 1 2.993 2.369l.068.19.047.191.243-.091c.17-.055.347-.099.528-.13l.274-.038.425-.022.422.031a3.755 3.755 0 0 1 3.239 3.523l.005.193V76.32a1.25 1.25 0 0 1-1.122 1.243l-.128.007H37.45a1.25 1.25 0 0 1-.873-.355l-.094-.103L26.7 65.163a4.003 4.003 0 0 1-.931-3.04l.032-.243.105-.487a4.131 4.131 0 0 1 1.5-2.17l.205-.146.427-.263c.782-.421 1.67-.6 2.703-.483l.285.04.574.183a6.061 6.061 0 0 1 1.463.805l.269.212.227.193.214.199 1.921 1.88.05-16.293a3.749 3.749 0 0 1 3.173-3.702l.196-.026.415-.022zm-.173 2.49l.11.012-.223.023a1.25 1.25 0 0 0-.992 1.1l-.006.129-.057 19.256c-.003 1.064-1.237 1.62-2.034.97l-.09-.08-4.158-4.062-.179-.15a3.753 3.753 0 0 0-.765-.495l-.183-.079-.314-.115a2.03 2.03 0 0 0-1.032.111l-.14.065-.323.201a1.668 1.668 0 0 0-.593.695l-.045.123-.073.34c-.06.376.028.761.253 1.088l.105.136 9.422 11.507H55.69l.003-17.634c0-.49-.289-.923-.669-1.123l-.106-.048-.221-.059-.254-.02a1.25 1.25 0 0 0-1.244 1.122l-.006.128-.028.293C52.9 59.047 50.834 59 50.7 57.578l-.006-.147v-2.5c0-.58-.403-1.079-.884-1.207l-.112-.023-.254-.02a1.25 1.25 0 0 0-1.244 1.122l-.006.128-.028.293c-.266 1.323-2.332 1.275-2.466-.146l-.006-.147v-1.25c0-.58-.403-1.079-.884-1.207l-.112-.023-.254-.02c-.583 0-1.08.4-1.208.893l-.023.115-.026.327c-.12 1.548-2.35 1.51-2.49.048l-.006-.146.003-8.135c.012-.663-.512-1.212-1.339-1.243zm.116-25.002l.458.024c2.338.24 4.173 2.172 4.266 4.592l.003.228-.028.502a4.714 4.714 0 0 1-1.974 3.334 4.474 4.474 0 0 1-1.517.718l.028 6.267c2.43.166 4.8 1.096 6.72 2.74l4.258-4.135a4.582 4.582 0 0 1-.615-2.133l-.001-.284.022-.196.012-.245a4.697 4.697 0 0 1 1.057-2.532l.17-.198.378-.373.34-.268a4.072 4.072 0 0 1 1.299-.68l.258-.074.405-.08a4.776 4.776 0 0 1 4.209 1.311l.17.177.363.45c.281.377.498.798.656 1.293l.074.254.09.443c.241 1.517-.26 3.052-1.383 4.178l-.183.174-.386.31c-.513.38-1.103.644-1.855.781l-.29.046.221-.02a4.752 4.752 0 0 1-3.236-.572l-4.32 4.196.136.182a11.547 11.547 0 0 1 2.033 4.82l.055.404 7.463.002.002-.013c.1-.455.273-.89.549-1.332l.146-.223.315-.39a4.721 4.721 0 0 1 3.297-1.543l.253-.004.522.025a4.777 4.777 0 0 1 2.9 1.399c1.782 1.815 1.814 4.698.053 6.612l-.17.176-.404.342a4.812 4.812 0 0 1-2.613.954l-.269.01-.474-.02a4.597 4.597 0 0 1-2.865-1.374 4.799 4.799 0 0 1-1.226-2.118h-8.619a1.25 1.25 0 0 1-1.249-1.21 9.066 9.066 0 0 0-1.9-5.286 9.053 9.053 0 0 0-12.715-1.592c-3.797 2.948-4.606 8.315-1.944 12.238l.345.484.057.067c.09.133.155.284.188.447l.025.252a1.25 1.25 0 0 1-.998 1.225l-.252.025a1.25 1.25 0 0 1-.987-.483 11.547 11.547 0 0 1-1.894-3.589l-7.723.039A4.854 4.854 0 0 1 19.5 52.54l-.213.158-.389.25c-.39.22-.813.38-1.272.475l-.28.05-.505.057a4.78 4.78 0 0 1-3.5-1.257l-.191-.183-.318-.353a4.618 4.618 0 0 1-1.024-2.796v-.26l.03-.499a4.698 4.698 0 0 1 1.792-3.171l.205-.151.384-.257c.391-.23.817-.393 1.263-.484l.269-.045.547-.063a4.786 4.786 0 0 1 4.013 1.818l.15.199.266.39c.206.344.364.714.47 1.123l7.204-.036a11.58 11.58 0 0 1 2.157-7.803l-4.51-4.38a4.776 4.776 0 0 1-2.99.61l-.264-.04-.453-.098a4.285 4.285 0 0 1-1.238-.566l-.232-.164-.411-.332a4.79 4.79 0 0 1-1.532-4.101l.034-.246.093-.466c.12-.452.31-.88.574-1.28l.168-.235.333-.415a4.767 4.767 0 0 1 4.118-1.531l.244.036.487.1c.446.12.868.311 1.257.574l.23.166.392.315a4.723 4.723 0 0 1 1.568 3.52 4.572 4.572 0 0 1-.616 2.377l4.43 4.304c.19-.167.384-.33.586-.486a11.496 11.496 0 0 1 5.382-2.312l-.03-6.376A4.796 4.796 0 0 1 35.67 27l-.158-.213-.253-.39a4.169 4.169 0 0 1-.481-1.282l-.043-.269-.062-.506a4.713 4.713 0 0 1 1.266-3.518l.187-.192.352-.311a4.759 4.759 0 0 1 2.994-1.03zm-22.795 27.21l-.16.002-.442.052-.196.04-.184.058-.141.065-.304.206a2.2 2.2 0 0 0-.894 1.31l-.028.165-.022.387c-.012.439.114.867.328 1.195l.097.134.232.258c.41.413.964.65 1.488.671h.174l.392-.046c.183-.027.362-.082.495-.14l.091-.044.281-.181c.588-.416.943-1.08.974-1.726l.001-.16-.038-.384a1.934 1.934 0 0 0-.148-.498l-.047-.091-.211-.306a2.312 2.312 0 0 0-1.577-.954l-.161-.012zm46.668-2.583l-.36.031c-.432.068-.83.257-1.124.523l-.12.119-.21.257c-.099.144-.174.303-.217.43l-.026.089-.065.424c-.136.721.093 1.461.635 2.007.302.315.698.526 1.082.603l.164.025.336.015c.425-.006.84-.132 1.158-.326l.13-.088.274-.23c.888-.88.899-2.31.03-3.195a2.305 2.305 0 0 0-1.138-.636l-.168-.027-.38-.02zM23.728 28.923a2.248 2.248 0 0 0-1.578.566l-.115.116-.265.333a1.842 1.842 0 0 0-.248.442l-.032.097-.069.35c-.115.703.108 1.416.545 1.89l.114.113.322.259c.143.107.302.193.434.244l.093.032.34.072c.561.1 1.147-.025 1.584-.306l.14-.1.28-.247c.427-.415.664-.988.652-1.597a2.253 2.253 0 0 0-.562-1.511l-.12-.12-.32-.254a1.81 1.81 0 0 0-.425-.245l-.09-.03-.27-.06-.41-.044zm32.07-.005l-.323.033-.304.058a1.64 1.64 0 0 0-.448.193l-.13.091-.276.216a2.206 2.206 0 0 0-.73 1.48l-.006.191-.01.119.017.256c.039.274.131.537.268.77l.111.17.22.251.259.238c.46.365 1.054.535 1.816.456l.212-.028-.182.013c.241-.035.474-.12.665-.23l.135-.089.288-.228c.527-.481.8-1.18.752-1.843l-.019-.165-.062-.313a1.924 1.924 0 0 0-.21-.497l-.067-.097-.246-.308-.229-.217a2.274 2.274 0 0 0-1.501-.52zm-16.344-7.13a2.282 2.282 0 0 0-1.231.345l-.138.098-.256.225a2.215 2.215 0 0 0-.671 1.473l.002.17.055.437c.02.167.07.333.127.462l.044.09.194.295c.413.59 1.082.944 1.733.967h.162l.414-.05c.286-.042.576-.164.86-.37.47-.328.795-.828.903-1.332l.028-.167.02-.37a2.26 2.26 0 0 0-2.246-2.274zm7.468-8.04l.52.5.511.546c.353.403.68.832.98 1.284l.427.695a1.25 1.25 0 1 1-2.171 1.239 9.56 9.56 0 0 0-1.113-1.567l-.445-.476a8.572 8.572 0 0 0-6.589-2.567l-.62.054a8.05 8.05 0 0 0-4.001 1.49l-.489.382a9.453 9.453 0 0 0-1.851 2.078l-.37.6-.05.093c-.18.266-.459.459-.784.526l-.252.025a1.25 1.25 0 0 1-1.225-.998l-.025-.252.158-.609a12.009 12.009 0 0 1 2.138-2.79l.63-.569a10.565 10.565 0 0 1 5.153-2.374l.705-.087a11.042 11.042 0 0 1 8.763 2.776zm-7.51-11.316l.93.008A19.059 19.059 0 0 1 52.72 7.565l.658.647a20.26 20.26 0 0 1 3.417 4.49 1.25 1.25 0 0 1-2.18 1.222A17.815 17.815 0 0 0 51.6 9.97 16.575 16.575 0 0 0 40.31 4.94l-.895-.015A16.57 16.57 0 0 0 27.865 9.37l-.617.595a18.206 18.206 0 0 0-2.493 3.083l-.51.848a1.25 1.25 0 0 1-2.177-1.23A20.229 20.229 0 0 1 24.7 9.021l.758-.79A19.045 19.045 0 0 1 38.53 2.439l.881-.007z" fill="#2F78C4" fill-rule="evenodd"/></svg>