<svg width="80" height="80" xmlns="http://www.w3.org/2000/svg"><path d="M59.719 11.581c16.144 0 24.239 18.836 10.056 34.204l-1.906 2.046-2.074 2.188-2.234 2.322-4.028 4.12a849.62 849.62 0 0 1-4.049 4.078l-4.212 4.19-4.398 4.33-5.544 5.419-.093.131a1.148 1.148 0 0 1-.644.363L40.3 75h-.625l-.311-.032a1.192 1.192 0 0 1-.676-.405l-.114-.152-7.702-7.546-4.305-4.26-4.128-4.133-3.63-3.68-3.53-3.634-3.176-3.336-1.91-2.05C-3.973 30.415 4.13 11.583 20.27 11.583c5.388 0 10.396 2.415 14.952 6.428a39.38 39.38 0 0 1 4.25 4.394l.517.64.119-.152a38.8 38.8 0 0 1 4.64-4.882C49.3 13.999 54.32 11.58 59.72 11.58zm0 2.5c-4.699 0-9.182 2.16-13.32 5.805A36.333 36.333 0 0 0 42.43 24l-.719.895-.772 1.002-.232.21-.168.072-.386.126-.15-.05c-.232.124-.36.107-.516 0l-.396-.325-.09-.112a.531.531 0 0 1-.103-.13l-.981-1.238a36.915 36.915 0 0 0-4.348-4.564c-4.14-3.647-8.613-5.805-13.3-5.805-13.95 0-20.934 16.232-8.237 29.996l1.896 2.034 2.064 2.177 2.225 2.313 3.997 4.089 2 2.021 4.12 4.122 4.294 4.252 7.36 7.211 5.137-5.023 4.389-4.32 4.202-4.18 5.673-5.73 3.505-3.61c.37-.385.734-.764 1.091-1.138l2.06-2.173 1.894-2.032c12.712-13.774 5.735-30.009-8.22-30.009zM42.35 31.068a3.313 3.313 0 0 1 3.306 3.306l-.002 5.217 5.234.002a3.321 3.321 0 0 1 3.275 2.926l.025.386v5.063a3.323 3.323 0 0 1-3.307 3.312l-5.227-.002.002 5.234a3.321 3.321 0 0 1-2.921 3.275l-.385.024h-5.076a3.312 3.312 0 0 1-3.3-3.306v-5.23h-5.275a3.274 3.274 0 0 1-3.24-2.888l-.022-.38.007-.072v-5.029a3.313 3.313 0 0 1 2.92-3.288l.386-.024 5.224-.003.001-5.217a3.304 3.304 0 0 1 2.92-3.284l.386-.022zm0 2.5h-5.069a.804.804 0 0 0-.806.806v6.432l-.164.532c-.125.343-.248.467-.592.592l-.532.164h-6.43a.813.813 0 0 0-.813.812l-.004 5.132.025.172c.071.26.276.464.536.537l.205.028h6.48l.496.128c.321.103.445.226.591.591l.201.569v6.442a.81.81 0 0 0 .807.806h5.062a.819.819 0 0 0 .813-.806v-6.438l.163-.533c.123-.344.247-.468.591-.592l.534-.162h6.43a.821.821 0 0 0 .814-.813v-5.055a.82.82 0 0 0-.807-.82l-6.437.001-.568-.2c-.512-.206-.55-.366-.72-1.087V34.38a.812.812 0 0 0-.806-.813z" fill="#2F78C4" fill-rule="evenodd"/></svg>