<svg width="80" height="80" xmlns="http://www.w3.org/2000/svg"><path d="M38.647 2.859a2.32 2.32 0 0 1 2.698-.006l34.648 24.318c1 .701.503 2.273-.718 2.273H4.725c-1.221 0-1.718-1.572-.718-2.273zm1.351 2.104L8.682 26.943h62.633L39.998 4.963zm.002 9.05c2.587 0 4.75 1.95 5.032 4.573l.024.483A5.059 5.059 0 0 1 40 24.125a5.055 5.055 0 0 1-5.056-5.056c0-2.592 1.95-4.75 4.574-5.032zm.025 2.5l-.306.015a2.55 2.55 0 0 0-2.275 2.54A2.555 2.555 0 0 0 40 21.626c1.41 0 2.556-1.147 2.558-2.49l-.017-.347c-.14-1.29-1.233-2.276-2.516-2.275zm26.85 50.43H13.662c-5.46 0-9.912 4.178-9.912 9.376 0 .69.56 1.25 1.25 1.25h70c.69 0 1.25-.56 1.25-1.25 0-5.176-4.201-9.375-9.375-9.375zm0 2.5l.513.02a6.885 6.885 0 0 1 6.196 5.35l.048.254H6.375l.038-.187c.712-3.096 3.673-5.436 7.25-5.436h53.212zM22.494 33.82h-7.5c-.69 0-1.25.56-1.25 1.25v26.875c0 .69.56 1.25 1.25 1.25h7.5c.69 0 1.25-.56 1.25-1.25V35.069c0-.69-.56-1.25-1.25-1.25zm-1.252 2.498v24.376h-5V36.317h5zm22.508-2.498h-7.5c-.69 0-1.25.56-1.25 1.25v26.875c0 .69.56 1.25 1.25 1.25h7.5c.69 0 1.25-.56 1.25-1.25V35.069c0-.69-.56-1.25-1.25-1.25zm-1.252 2.498v24.376h-5V36.317h5zM65 33.819h-7.5c-.69 0-1.25.56-1.25 1.25v26.875c0 .69.56 1.25 1.25 1.25H65c.69 0 1.25-.56 1.25-1.25V35.069c0-.69-.56-1.25-1.25-1.25zm-1.252 2.498v24.376h-5V36.317h5z" fill="#2F78C4" fill-rule="evenodd"/></svg>